<svg width="109" height="115" viewBox="0 0 109 115" fill="none" xmlns="http://www.w3.org/2000/svg">
<path d="M10.8995 9.89951L30.6985 29.6985" stroke="#0A5D2F" stroke-width="5" stroke-linecap="round" stroke-linejoin="round"/>
<path d="M10.8995 29.6985L30.6985 9.8995" stroke="#0A5D2F" stroke-width="5" stroke-linecap="round" stroke-linejoin="round"/>
<path d="M43.8995 9.89951L63.6985 29.6985" stroke="#0A5D2F" stroke-width="5" stroke-linecap="round" stroke-linejoin="round"/>
<path d="M43.8995 29.6985L63.6985 9.8995" stroke="#0A5D2F" stroke-width="5" stroke-linecap="round" stroke-linejoin="round"/>
<path d="M78.8995 9.89951L98.6985 29.6985" stroke="#0A5D2F" stroke-width="5" stroke-linecap="round" stroke-linejoin="round"/>
<path d="M78.8995 29.6985L98.6985 9.8995" stroke="#0A5D2F" stroke-width="5" stroke-linecap="round" stroke-linejoin="round"/>
<path d="M9.89951 47.8995L29.6985 67.6985" stroke="#0A5D2F" stroke-width="5" stroke-linecap="round" stroke-linejoin="round"/>
<path d="M9.89951 67.6985L29.6985 47.8995" stroke="#0A5D2F" stroke-width="5" stroke-linecap="round" stroke-linejoin="round"/>
<path d="M42.8995 47.8995L62.6985 67.6985" stroke="#0A5D2F" stroke-width="5" stroke-linecap="round" stroke-linejoin="round"/>
<path d="M42.8995 67.6985L62.6985 47.8995" stroke="#0A5D2F" stroke-width="5" stroke-linecap="round" stroke-linejoin="round"/>
<path d="M77.8995 47.8995L97.6985 67.6985" stroke="#0A5D2F" stroke-width="5" stroke-linecap="round" stroke-linejoin="round"/>
<path d="M77.8995 67.6985L97.6985 47.8995" stroke="#0A5D2F" stroke-width="5" stroke-linecap="round" stroke-linejoin="round"/>
<path d="M9.89951 84.8995L29.6985 104.698" stroke="#0A5D2F" stroke-width="5" stroke-linecap="round" stroke-linejoin="round"/>
<path d="M9.89951 104.698L29.6985 84.8995" stroke="#0A5D2F" stroke-width="5" stroke-linecap="round" stroke-linejoin="round"/>
<path d="M42.8995 84.8995L62.6985 104.698" stroke="#0A5D2F" stroke-width="5" stroke-linecap="round" stroke-linejoin="round"/>
<path d="M42.8995 104.698L62.6985 84.8995" stroke="#0A5D2F" stroke-width="5" stroke-linecap="round" stroke-linejoin="round"/>
<path d="M77.8995 84.8995L97.6985 104.698" stroke="#0A5D2F" stroke-width="5" stroke-linecap="round" stroke-linejoin="round"/>
<path d="M77.8995 104.698L97.6985 84.8995" stroke="#0A5D2F" stroke-width="5" stroke-linecap="round" stroke-linejoin="round"/>
</svg>
