<svg width="300" height="300" viewBox="0 0 300 300" fill="none" xmlns="http://www.w3.org/2000/svg">
<rect x="2.5" y="2.5" width="295" height="295" rx="147.5" fill="white" stroke="black" stroke-width="5"/>
<path d="M177.667 119.783V121.283H179.167H187.939L198.5 128.459V171.66L186.742 183.5H152.655L142.626 175.152L142.209 174.804H141.667H133.333H131.833V176.304V179.152H101.5V125.63H131.833V128.478V129.983L133.338 129.978C139.378 129.958 144.554 125.392 149.215 117.903C153.805 110.529 158.173 99.8856 162.563 86.5H181.833V98.4905L177.734 111.73L177.667 111.947V112.174V119.783ZM192.731 169.644L193.167 169.205V168.587V132.378V131.584L192.51 131.138L186.772 127.238L186.391 126.978H185.929H172.333V110.818L176.433 97.5785L176.5 97.3617V97.1348V93.6957V92.1957H175H167.454H166.363L166.027 93.2335C163.005 102.563 158.467 113.287 152.777 121.644C147.025 130.093 140.41 135.674 133.333 135.674H131.833V137.174V167.609V169.109H133.333H144.041L154.069 177.457L154.487 177.804H155.029H184.004H184.629L185.069 177.361L192.731 169.644Z" fill="black" stroke="black" stroke-width="3"/>
</svg>
