<svg width="81" height="83" viewBox="0 0 81 83" fill="none" xmlns="http://www.w3.org/2000/svg">
<path d="M38.8828 0C38.052 0.818024 36.8503 2.12219 35.6643 3.83698C34.6421 5.31464 33.809 6.82617 33.1644 8.36517C35.4642 10.0035 37.4312 11.9545 38.9995 14.1628C40.5541 11.9742 42.5005 10.0378 44.7742 8.40912C44.0999 6.83578 43.227 5.29404 42.1554 3.79074C40.945 2.09335 39.7246 0.806122 38.8828 0Z" fill="#E60023"/>
<path d="M39.5067 34.6366C40.5728 34.4626 42.2396 34.0978 44.1191 33.3475C48.3507 31.6584 51.6283 28.904 53.8608 25.1604C58.0979 18.055 56.7035 10.3028 55.8699 7.19824C54.7356 7.46741 53.0313 7.95996 51.1284 8.81186C46.6712 10.8063 43.2704 13.731 41.0205 17.5034C38.7885 21.247 37.9229 25.4397 38.4479 29.966C38.6814 31.9752 39.1524 33.6149 39.5067 34.6366Z" fill="#E60023"/>
<path d="M13.9452 16.2537C11.8647 16.3914 10.1284 16.7531 9 17.0456C9.25909 18.1813 9.73746 19.8897 10.5729 21.7999C12.5294 26.2741 15.4243 29.6995 19.1775 31.9815C22.1213 33.7713 25.3875 34.7102 28.8885 34.7789C25.6745 32.8219 23.0273 30.171 21.1147 26.9635C19.2246 23.7939 18.1013 20.1625 17.7918 16.2839C16.5476 16.1786 15.265 16.1667 13.9452 16.2537Z" fill="#E60023"/>
<path d="M22.13 7.19824C21.8274 8.32434 21.4512 10.0574 21.296 12.1366C20.9325 17.0058 21.8888 21.3875 24.1387 25.1604C26.3712 28.9036 29.6488 31.6584 33.8803 33.3475C34.4896 33.5906 35.0742 33.7911 35.6253 33.96C35.3685 32.9786 35.1259 31.8159 34.9675 30.5144C34.4123 25.951 35.1168 21.5116 37.0069 17.5515C36.9973 17.5355 36.9881 17.5194 36.9785 17.5034C34.7286 13.7305 31.3283 10.8063 26.8711 8.81186C24.9681 7.96042 23.2644 7.46741 22.13 7.19824Z" fill="#E60023"/>
<path d="M69 17.0454C67.872 16.7529 66.1348 16.3913 64.0538 16.2535C62.7341 16.1665 61.4514 16.1775 60.2072 16.2833C59.8978 20.1614 58.7749 23.7938 56.8843 26.9633C54.9718 30.1704 52.3241 32.8218 49.1106 34.7787C52.612 34.7101 55.8786 33.7707 58.8216 31.9813C65.8908 27.6834 68.2845 20.1793 69 17.0454Z" fill="#E60023"/>
<path d="M6.66797 73.9609C7.37891 73.9609 7.96875 73.7539 8.4375 73.3398C8.90625 72.9258 9.15625 72.4141 9.1875 71.8047H11.8711C11.8398 72.5938 11.5938 73.332 11.1328 74.0195C10.6719 74.6992 10.0469 75.2383 9.25781 75.6367C8.46875 76.0352 7.61719 76.2344 6.70312 76.2344C4.92969 76.2344 3.52344 75.6602 2.48438 74.5117C1.44531 73.3633 0.925781 71.7773 0.925781 69.7539V69.4609C0.925781 67.5312 1.44141 65.9883 2.47266 64.832C3.50391 63.668 4.91016 63.0859 6.69141 63.0859C8.19922 63.0859 9.42578 63.5273 10.3711 64.4102C11.3242 65.2852 11.8242 66.4375 11.8711 67.8672H9.1875C9.15625 67.1406 8.90625 66.543 8.4375 66.0742C7.97656 65.6055 7.38672 65.3711 6.66797 65.3711C5.74609 65.3711 5.03516 65.707 4.53516 66.3789C4.03516 67.043 3.78125 68.0547 3.77344 69.4141V69.8711C3.77344 71.2461 4.01953 72.2734 4.51172 72.9531C5.01172 73.625 5.73047 73.9609 6.66797 73.9609ZM25.125 69.7891C25.125 71.75 24.6797 73.3164 23.7891 74.4883C22.8984 75.6523 21.7031 76.2344 20.2031 76.2344C18.8125 76.2344 17.6992 75.7773 16.8633 74.8633V80.875H14.0156V63.3203H16.6406L16.7578 64.6094C17.5938 63.5938 18.7305 63.0859 20.168 63.0859C21.7148 63.0859 22.9258 63.6641 23.8008 64.8203C24.6836 65.9688 25.125 67.5664 25.125 69.6133V69.7891ZM22.2891 69.543C22.2891 68.2773 22.0352 67.2734 21.5273 66.5312C21.0273 65.7891 20.3086 65.418 19.3711 65.418C18.207 65.418 17.3711 65.8984 16.8633 66.8594V72.4844C17.3789 73.4688 18.2227 73.9609 19.3945 73.9609C20.3008 73.9609 21.0078 73.5977 21.5156 72.8711C22.0312 72.1367 22.2891 71.0273 22.2891 69.543Z" fill="#E60023"/>
<path d="M37.5664 72.5547C37.5664 72.0469 37.3555 71.6602 36.9336 71.3945C36.5195 71.1289 35.8281 70.8945 34.8594 70.6914C33.8906 70.4883 33.082 70.2305 32.4336 69.918C31.0117 69.2305 30.3008 68.2344 30.3008 66.9297C30.3008 65.8359 30.7617 64.9219 31.6836 64.1875C32.6055 63.4531 33.7773 63.0859 35.1992 63.0859C36.7148 63.0859 37.9375 63.4609 38.8672 64.2109C39.8047 64.9609 40.2734 65.9336 40.2734 67.1289H37.4258C37.4258 66.582 37.2227 66.1289 36.8164 65.7695C36.4102 65.4023 35.8711 65.2188 35.1992 65.2188C34.5742 65.2188 34.0625 65.3633 33.6641 65.6523C33.2734 65.9414 33.0781 66.3281 33.0781 66.8125C33.0781 67.25 33.2617 67.5898 33.6289 67.832C33.9961 68.0742 34.7383 68.3203 35.8555 68.5703C36.9727 68.8125 37.8477 69.1055 38.4805 69.4492C39.1211 69.7852 39.5938 70.1914 39.8984 70.668C40.2109 71.1445 40.3672 71.7227 40.3672 72.4023C40.3672 73.543 39.8945 74.4688 38.9492 75.1797C38.0039 75.8828 36.7656 76.2344 35.2344 76.2344C34.1953 76.2344 33.2695 76.0469 32.457 75.6719C31.6445 75.2969 31.0117 74.7812 30.5586 74.125C30.1055 73.4688 29.8789 72.7617 29.8789 72.0039H32.6445C32.6836 72.6758 32.9375 73.1953 33.4062 73.5625C33.875 73.9219 34.4961 74.1016 35.2695 74.1016C36.0195 74.1016 36.5898 73.9609 36.9805 73.6797C37.3711 73.3906 37.5664 73.0156 37.5664 72.5547ZM48.4414 76.2344C46.6367 76.2344 45.1719 75.668 44.0469 74.5352C42.9297 73.3945 42.3711 71.8789 42.3711 69.9883V69.6367C42.3711 68.3711 42.6133 67.2422 43.0977 66.25C43.5898 65.25 44.2773 64.4727 45.1602 63.918C46.043 63.3633 47.0273 63.0859 48.1133 63.0859C49.8398 63.0859 51.1719 63.6367 52.1094 64.7383C53.0547 65.8398 53.5273 67.3984 53.5273 69.4141V70.5625H45.2422C45.3281 71.6094 45.6758 72.4375 46.2852 73.0469C46.9023 73.6562 47.6758 73.9609 48.6055 73.9609C49.9102 73.9609 50.9727 73.4336 51.793 72.3789L53.3281 73.8438C52.8203 74.6016 52.1406 75.1914 51.2891 75.6133C50.4453 76.0273 49.4961 76.2344 48.4414 76.2344ZM48.1016 65.3711C47.3203 65.3711 46.6875 65.6445 46.2031 66.1914C45.7266 66.7383 45.4219 67.5 45.2891 68.4766H50.7148V68.2656C50.6523 67.3125 50.3984 66.5938 49.9531 66.1094C49.5078 65.6172 48.8906 65.3711 48.1016 65.3711ZM61.332 76.2344C59.5273 76.2344 58.0625 75.668 56.9375 74.5352C55.8203 73.3945 55.2617 71.8789 55.2617 69.9883V69.6367C55.2617 68.3711 55.5039 67.2422 55.9883 66.25C56.4805 65.25 57.168 64.4727 58.0508 63.918C58.9336 63.3633 59.918 63.0859 61.0039 63.0859C62.7305 63.0859 64.0625 63.6367 65 64.7383C65.9453 65.8398 66.418 67.3984 66.418 69.4141V70.5625H58.1328C58.2188 71.6094 58.5664 72.4375 59.1758 73.0469C59.793 73.6562 60.5664 73.9609 61.4961 73.9609C62.8008 73.9609 63.8633 73.4336 64.6836 72.3789L66.2188 73.8438C65.7109 74.6016 65.0312 75.1914 64.1797 75.6133C63.3359 76.0273 62.3867 76.2344 61.332 76.2344ZM60.9922 65.3711C60.2109 65.3711 59.5781 65.6445 59.0938 66.1914C58.6172 66.7383 58.3125 67.5 58.1797 68.4766H63.6055V68.2656C63.543 67.3125 63.2891 66.5938 62.8438 66.1094C62.3984 65.6172 61.7812 65.3711 60.9922 65.3711ZM68.1055 69.5664C68.1055 67.6133 68.5586 66.0469 69.4648 64.8672C70.3711 63.6797 71.5859 63.0859 73.1094 63.0859C74.4531 63.0859 75.5391 63.5547 76.3672 64.4922V58H79.2148V76H76.6367L76.4961 74.6875C75.6445 75.7188 74.5078 76.2344 73.0859 76.2344C71.6016 76.2344 70.3984 75.6367 69.4766 74.4414C68.5625 73.2461 68.1055 71.6211 68.1055 69.5664ZM70.9531 69.8125C70.9531 71.1016 71.1992 72.1094 71.6914 72.8359C72.1914 73.5547 72.8984 73.9141 73.8125 73.9141C74.9766 73.9141 75.8281 73.3945 76.3672 72.3555V66.9414C75.8438 65.9258 75 65.418 73.8359 65.418C72.9141 65.418 72.2031 65.7852 71.7031 66.5195C71.2031 67.2461 70.9531 68.3438 70.9531 69.8125Z" fill="#E60023"/>
</svg>
