<svg width="156" height="86" viewBox="0 0 156 86" fill="none" xmlns="http://www.w3.org/2000/svg">
<rect width="80" height="80" fill="#E60023"/>
<path d="M62.3225 13C61.0624 14.3825 59.24 16.5867 57.4411 19.4848C55.8908 21.9821 54.6272 24.5367 53.6497 27.1378C57.1377 29.9067 60.121 33.204 62.4996 36.9361C64.8573 33.2373 67.8094 29.9647 71.2579 27.212C70.2352 24.553 68.9112 21.9473 67.2859 19.4066C65.4503 16.5379 63.5993 14.3624 62.3225 13Z" fill="white"/>
<path d="M63.2687 71.5384C64.8857 71.2444 67.4136 70.6278 70.2642 69.3598C76.6821 66.505 81.6531 61.8499 85.0391 55.523C91.4653 43.5143 89.3506 30.4125 88.0863 25.1655C86.3659 25.6204 83.7811 26.4529 80.895 27.8927C74.1348 31.2635 68.9771 36.2063 65.5647 42.582C62.1794 48.909 60.8665 55.9949 61.6629 63.6448C62.017 67.0403 62.7314 69.8116 63.2687 71.5384Z" fill="white"/>
<path d="M24.5005 40.4699C21.345 40.7027 18.7116 41.3139 17.0002 41.8083C17.3932 43.7277 18.1187 46.615 19.3858 49.8434C22.3531 57.4051 26.7437 63.1944 32.4361 67.0511C36.9009 70.076 41.8546 71.6628 47.1644 71.7789C42.2899 68.4715 38.2749 63.9913 35.3742 58.5703C32.5076 53.2135 30.8038 47.0761 30.3345 40.5209C28.4475 40.343 26.5021 40.3229 24.5005 40.4699Z" fill="white"/>
<path d="M36.9141 25.1655C36.4552 27.0687 35.8845 29.9978 35.6491 33.5117C35.0979 41.7411 36.5482 49.1465 39.9606 55.523C43.3466 61.8491 48.3176 66.505 54.7354 69.3598C55.6595 69.7706 56.5461 70.1094 57.382 70.3949C56.9925 68.7362 56.6246 66.7711 56.3843 64.5716C55.5422 56.8591 56.6107 49.3562 59.4773 42.6633C59.4628 42.6362 59.4489 42.6091 59.4343 42.582C56.0219 36.2056 50.8649 31.2635 44.1047 27.8927C41.2186 26.4537 38.6345 25.6204 36.9141 25.1655Z" fill="white"/>
<path d="M98.4219 73.4062C98.4219 72.7292 98.1406 72.2135 97.5781 71.8594C97.026 71.5052 96.1042 71.1927 94.8125 70.9219C93.5208 70.651 92.4427 70.3073 91.5781 69.8906C89.6823 68.974 88.7344 67.6458 88.7344 65.9062C88.7344 64.4479 89.349 63.2292 90.5781 62.25C91.8073 61.2708 93.3698 60.7812 95.2656 60.7812C97.2865 60.7812 98.9167 61.2812 100.156 62.2812C101.406 63.2812 102.031 64.5781 102.031 66.1719H98.2344C98.2344 65.4427 97.9635 64.8385 97.4219 64.3594C96.8802 63.8698 96.1615 63.625 95.2656 63.625C94.4323 63.625 93.75 63.8177 93.2188 64.2031C92.6979 64.5885 92.4375 65.1042 92.4375 65.75C92.4375 66.3333 92.6823 66.7865 93.1719 67.1094C93.6615 67.4323 94.651 67.7604 96.1406 68.0938C97.6302 68.4167 98.7969 68.8073 99.6406 69.2656C100.495 69.7135 101.125 70.2552 101.531 70.8906C101.948 71.526 102.156 72.2969 102.156 73.2031C102.156 74.724 101.526 75.9583 100.266 76.9062C99.0052 77.8438 97.3542 78.3125 95.3125 78.3125C93.9271 78.3125 92.6927 78.0625 91.6094 77.5625C90.526 77.0625 89.6823 76.375 89.0781 75.5C88.474 74.625 88.1719 73.6823 88.1719 72.6719H91.8594C91.9115 73.5677 92.25 74.2604 92.875 74.75C93.5 75.2292 94.3281 75.4688 95.3594 75.4688C96.3594 75.4688 97.1198 75.2812 97.6406 74.9062C98.1615 74.5208 98.4219 74.0208 98.4219 73.4062ZM112.922 78.3125C110.516 78.3125 108.562 77.5573 107.062 76.0469C105.573 74.526 104.828 72.5052 104.828 69.9844V69.5156C104.828 67.8281 105.151 66.3229 105.797 65C106.453 63.6667 107.37 62.6302 108.547 61.8906C109.724 61.151 111.036 60.7812 112.484 60.7812C114.786 60.7812 116.562 61.5156 117.812 62.9844C119.073 64.4531 119.703 66.5312 119.703 69.2188V70.75H108.656C108.771 72.1458 109.234 73.25 110.047 74.0625C110.87 74.875 111.901 75.2812 113.141 75.2812C114.88 75.2812 116.297 74.5781 117.391 73.1719L119.438 75.125C118.76 76.1354 117.854 76.9219 116.719 77.4844C115.594 78.0365 114.328 78.3125 112.922 78.3125ZM112.469 63.8281C111.427 63.8281 110.583 64.1927 109.938 64.9219C109.302 65.651 108.896 66.6667 108.719 67.9688H115.953V67.6875C115.87 66.4167 115.531 65.4583 114.938 64.8125C114.344 64.1562 113.521 63.8281 112.469 63.8281ZM130.109 78.3125C127.703 78.3125 125.75 77.5573 124.25 76.0469C122.76 74.526 122.016 72.5052 122.016 69.9844V69.5156C122.016 67.8281 122.339 66.3229 122.984 65C123.641 63.6667 124.557 62.6302 125.734 61.8906C126.911 61.151 128.224 60.7812 129.672 60.7812C131.974 60.7812 133.75 61.5156 135 62.9844C136.26 64.4531 136.891 66.5312 136.891 69.2188V70.75H125.844C125.958 72.1458 126.422 73.25 127.234 74.0625C128.057 74.875 129.089 75.2812 130.328 75.2812C132.068 75.2812 133.484 74.5781 134.578 73.1719L136.625 75.125C135.948 76.1354 135.042 76.9219 133.906 77.4844C132.781 78.0365 131.516 78.3125 130.109 78.3125ZM129.656 63.8281C128.615 63.8281 127.771 64.1927 127.125 64.9219C126.49 65.651 126.083 66.6667 125.906 67.9688H133.141V67.6875C133.057 66.4167 132.719 65.4583 132.125 64.8125C131.531 64.1562 130.708 63.8281 129.656 63.8281ZM139.141 69.4219C139.141 66.8177 139.745 64.7292 140.953 63.1562C142.161 61.5729 143.781 60.7812 145.812 60.7812C147.604 60.7812 149.052 61.4062 150.156 62.6562V54H153.953V78H150.516L150.328 76.25C149.193 77.625 147.677 78.3125 145.781 78.3125C143.802 78.3125 142.198 77.5156 140.969 75.9219C139.75 74.3281 139.141 72.1615 139.141 69.4219ZM142.938 69.75C142.938 71.4688 143.266 72.8125 143.922 73.7812C144.589 74.7396 145.531 75.2188 146.75 75.2188C148.302 75.2188 149.438 74.526 150.156 73.1406V65.9219C149.458 64.5677 148.333 63.8906 146.781 63.8906C145.552 63.8906 144.604 64.3802 143.938 65.3594C143.271 66.3281 142.938 67.7917 142.938 69.75Z" fill="#E60023"/>
<path d="M95.8906 46.2812C96.8385 46.2812 97.625 46.0052 98.25 45.4531C98.875 44.901 99.2083 44.2188 99.25 43.4062H102.828C102.786 44.4583 102.458 45.4427 101.844 46.3594C101.229 47.2656 100.396 47.9844 99.3438 48.5156C98.2917 49.0469 97.1562 49.3125 95.9375 49.3125C93.5729 49.3125 91.6979 48.5469 90.3125 47.0156C88.9271 45.4844 88.2344 43.3698 88.2344 40.6719V40.2812C88.2344 37.7083 88.9219 35.651 90.2969 34.1094C91.6719 32.5573 93.5469 31.7812 95.9219 31.7812C97.9323 31.7812 99.5677 32.3698 100.828 33.5469C102.099 34.7135 102.766 36.25 102.828 38.1562H99.25C99.2083 37.1875 98.875 36.3906 98.25 35.7656C97.6354 35.1406 96.849 34.8281 95.8906 34.8281C94.6615 34.8281 93.7135 35.276 93.0469 36.1719C92.3802 37.0573 92.0417 38.4062 92.0312 40.2188V40.8281C92.0312 42.6615 92.3594 44.0312 93.0156 44.9375C93.6823 45.8333 94.6406 46.2812 95.8906 46.2812ZM120.5 40.7188C120.5 43.3333 119.906 45.4219 118.719 46.9844C117.531 48.5365 115.938 49.3125 113.938 49.3125C112.083 49.3125 110.599 48.7031 109.484 47.4844V55.5H105.688V32.0938H109.188L109.344 33.8125C110.458 32.4583 111.974 31.7812 113.891 31.7812C115.953 31.7812 117.568 32.5521 118.734 34.0938C119.911 35.625 120.5 37.7552 120.5 40.4844V40.7188ZM116.719 40.3906C116.719 38.7031 116.38 37.3646 115.703 36.375C115.036 35.3854 114.078 34.8906 112.828 34.8906C111.276 34.8906 110.161 35.5312 109.484 36.8125V44.3125C110.172 45.625 111.297 46.2812 112.859 46.2812C114.068 46.2812 115.01 45.7969 115.688 44.8281C116.375 43.849 116.719 42.3698 116.719 40.3906Z" fill="#E60023"/>
</svg>
