<svg width="300" height="300" viewBox="0 0 300 300" fill="none" xmlns="http://www.w3.org/2000/svg">
<rect width="300" height="300" rx="150" fill="black"/>
<path d="M203 190.192L176.938 164.337C181.84 157.65 184.738 149.425 184.738 140.542C184.738 118.187 166.405 100 143.867 100C121.333 100 103 118.187 103 140.542C103 162.9 121.333 181.083 143.867 181.083C152.41 181.083 160.344 178.471 166.913 174.008L193.113 200L203 190.192ZM114.987 140.542C114.987 124.742 127.944 111.887 143.871 111.887C159.798 111.887 172.755 124.742 172.755 140.542C172.755 156.342 159.798 169.196 143.871 169.196C127.94 169.196 114.987 156.342 114.987 140.542Z" fill="white"/>
</svg>
