<svg width="300" height="300" viewBox="0 0 300 300" fill="none" xmlns="http://www.w3.org/2000/svg">
<rect x="2.5" y="2.5" width="295" height="295" rx="147.5" fill="white" stroke="black" stroke-width="5"/>
<path d="M174.922 162.86L173.649 164.596L175.178 166.112L199.45 190.192L193.113 196.479L168.673 172.234L167.211 170.783L165.508 171.94C159.34 176.131 151.893 178.583 143.867 178.583C122.695 178.583 105.5 161.5 105.5 140.542C105.5 119.587 122.695 102.5 143.867 102.5C165.043 102.5 182.238 119.587 182.238 140.542C182.238 148.872 179.522 156.583 174.922 162.86ZM143.871 109.387C126.583 109.387 112.487 123.342 112.487 140.542C112.487 157.741 126.578 171.696 143.871 171.696C161.16 171.696 175.255 157.741 175.255 140.542C175.255 123.342 161.16 109.387 143.871 109.387Z" fill="black" stroke="black" stroke-width="5"/>
</svg>
