<svg width="300" height="300" viewBox="0 0 300 300" fill="none" xmlns="http://www.w3.org/2000/svg">
<rect width="300" height="300" rx="150" fill="black"/>
<path d="M165.928 174.293L167.635 175.204L168.944 173.78C171.55 170.946 175.226 169.167 179.333 169.167C187.157 169.167 193.5 175.51 193.5 183.333C193.5 191.157 187.157 197.5 179.333 197.5C171.51 197.5 165.167 191.157 165.167 183.333C165.167 182.236 165.332 181.147 165.602 180.019L166.052 178.141L164.347 177.232L143.917 166.335C144.492 165.386 145.017 164.404 145.491 163.393L165.928 174.293ZM164.347 122.768L166.052 121.859L165.602 119.981C165.332 118.853 165.167 117.764 165.167 116.667C165.167 108.843 171.51 102.5 179.333 102.5C187.157 102.5 193.5 108.843 193.5 116.667C193.5 124.49 187.157 130.833 179.333 130.833C175.226 130.833 171.55 129.054 168.944 126.22L167.635 124.796L165.928 125.707L145.489 136.608C145.015 135.597 144.49 134.615 143.916 133.666L164.347 122.768ZM131.833 150C131.833 141.728 125.106 135 116.833 135C108.561 135 101.833 141.728 101.833 150C101.833 158.272 108.561 165 116.833 165C125.106 165 131.833 158.272 131.833 150ZM98.5 150C98.5 139.876 106.706 131.667 116.833 131.667C126.961 131.667 135.167 139.876 135.167 150C135.167 160.124 126.961 168.333 116.833 168.333C106.706 168.333 98.5 160.124 98.5 150ZM168.5 183.333C168.5 189.31 173.357 194.167 179.333 194.167C185.31 194.167 190.167 189.31 190.167 183.333C190.167 177.357 185.31 172.5 179.333 172.5C173.357 172.5 168.5 177.357 168.5 183.333ZM168.5 116.667C168.5 122.643 173.357 127.5 179.333 127.5C185.31 127.5 190.167 122.643 190.167 116.667C190.167 110.69 185.31 105.833 179.333 105.833C173.357 105.833 168.5 110.69 168.5 116.667Z" fill="white" stroke="white" stroke-width="5"/>
</svg>
